# xmcd
#
# Track frame offsets: 
#        150
#        8408
#        24670
#        39401
#        58514
#        70215
#        83267
#        94910
#        107483
#        125072
#        141212
#        154939
#        163467
#        178016
#
# Disc length: 2573 seconds
#
# Revision: 0
# Processed by: cddbd v1.5.2PL0 Copyright (c) Steve Scherf et al.
# Submitted via: ExactAudioCopy v1.0b1
#
DISCID=b20a0b0e
DTITLE=Beathotel - move on ...
DYEAR=1900
DGENRE=Beat
TTITLE0=On the road
TTITLE1=Set the house ablaze
TTITLE2=All I really want
TTITLE3=Move on
TTITLE4=What is life?
TTITLE5=Love is everywhere
TTITLE6=Sunshine
TTITLE7=Smile
TTITLE8=Fly like Simon Magus
TTITLE9=Mr. B. is Dr. Evil
TTITLE10=It's out
TTITLE11=Please please me
TTITLE12=I am a prince
TTITLE13=It's gonna be alright
EXTD=
EXTT0=
EXTT1=
EXTT2=
EXTT3=
EXTT4=
EXTT5=
EXTT6=
EXTT7=
EXTT8=
EXTT9=
EXTT10=
EXTT11=
EXTT12=
EXTT13=
PLAYORDER=
